<?xml version="1.0" encoding="UTF-8"?>
<!DOCTYPE svg PUBLIC "-//W3C//DTD SVG 1.1//EN" "http://www.w3.org/Graphics/SVG/1.1/DTD/svg11.dtd">
<svg xmlns="http://www.w3.org/2000/svg" version="1.1" width="80px" height="99px" style="shape-rendering:geometricPrecision; text-rendering:geometricPrecision; image-rendering:optimizeQuality; fill-rule:evenodd; clip-rule:evenodd" xmlns:xlink="http://www.w3.org/1999/xlink">
<g><path style="opacity:0.832" fill="#41ac02" d="M 39.5,-0.5 C 40.5,-0.5 41.5,-0.5 42.5,-0.5C 42.5,1.5 42.5,3.5 42.5,5.5C 41.5,5.5 40.5,5.5 39.5,5.5C 39.5,3.5 39.5,1.5 39.5,-0.5 Z"/></g>
<g><path style="opacity:0.956" fill="#3a9604" d="M 45.5,-0.5 C 46.1667,-0.5 46.8333,-0.5 47.5,-0.5C 48.6414,1.54868 48.6414,3.54868 47.5,5.5C 46.8333,5.5 46.1667,5.5 45.5,5.5C 44.2584,3.61121 44.2584,1.61121 45.5,-0.5 Z"/></g>
<g><path style="opacity:0.875" fill="#45b700" d="M 31.5,3.5 C 31.5,4.83333 30.8333,5.5 29.5,5.5C 27.8958,4.71304 27.2291,3.3797 27.5,1.5C 29.3797,1.22911 30.713,1.89578 31.5,3.5 Z"/></g>
<g><path style="opacity:0.847" fill="#42af00" d="M 35.5,8.5 C 35.5,7.83333 35.1667,7.5 34.5,7.5C 34.1814,5.2495 34.6814,3.2495 36,1.5C 38.1449,4.18401 37.9783,6.51734 35.5,8.5 Z"/></g>
<g><path style="opacity:0.881" fill="#3b9a02" d="M 52.5,-0.5 C 52.8333,-0.5 53.1667,-0.5 53.5,-0.5C 54.1847,1.41444 54.6847,3.41444 55,5.5C 56.3561,4.61983 57.8561,4.28649 59.5,4.5C 59.6495,5.55198 59.4828,6.55198 59,7.5C 56.0015,9.33292 53.5015,11.6662 51.5,14.5C 50.8333,16.5 50.1667,18.5 49.5,20.5C 47.9937,17.5308 48.327,14.6975 50.5,12C 49.1059,11.044 48.4393,9.71063 48.5,8C 50.2024,5.42458 51.5358,2.59125 52.5,-0.5 Z M 52.5,9.5 C 52.281,8.32496 52.6143,7.32496 53.5,6.5C 54.6653,7.85953 54.332,8.85953 52.5,9.5 Z"/></g>
<g><path style="opacity:0.391" fill="#236000" d="M 45.5,5.5 C 46.1667,5.5 46.8333,5.5 47.5,5.5C 47.8257,13.6841 47.4924,21.6841 46.5,29.5C 46.825,21.9809 46.4916,14.6476 45.5,7.5C 45.5,6.83333 45.5,6.16667 45.5,5.5 Z"/></g>
<g><path style="opacity:0.88" fill="#3da003" d="M 63.5,12.5 C 62.8333,12.5 62.1667,12.5 61.5,12.5C 60.8333,12.5 60.5,12.8333 60.5,13.5C 59.5,13.8333 58.8333,14.5 58.5,15.5C 58.1667,15.5 57.8333,15.5 57.5,15.5C 57.5,14.1667 57.5,12.8333 57.5,11.5C 59.3983,9.85981 61.3983,8.19314 63.5,6.5C 64.7928,8.63648 64.7928,10.6365 63.5,12.5 Z"/></g>
<g><path style="opacity:0.77" fill="#3d9f03" d="M 20.5,12.5 C 20.19,15.7131 20.5233,18.7131 21.5,21.5C 22.1667,21.5 22.5,21.8333 22.5,22.5C 25.6248,23.4794 28.9581,23.8128 32.5,23.5C 28.4336,24.822 24.2669,24.822 20,23.5C 18.5557,25.1554 16.7224,25.822 14.5,25.5C 14.5,24.8333 14.1667,24.5 13.5,24.5C 12.8333,24.5 12.5,24.1667 12.5,23.5C 13.842,22.207 15.5087,21.3736 17.5,21C 15.9341,18.0148 13.7675,17.1815 11,18.5C 9.59622,18.4907 8.42956,17.9907 7.5,17C 8.94944,15.883 10.6161,15.2163 12.5,15C 10.8934,13.951 10.2267,12.451 10.5,10.5C 11.8221,10.33 12.9887,10.6634 14,11.5C 14.4828,10.552 14.6495,9.55198 14.5,8.5C 17.3176,8.65745 19.3176,9.99078 20.5,12.5 Z M 15.5,13.5 C 16.8333,13.5 18.1667,13.5 19.5,13.5C 19.4421,19.5586 18.1087,19.5586 15.5,13.5 Z"/></g>
<g><path style="opacity:0.078" fill="#2e7d00" d="M 42.5,22.5 C 41.5,22.5 40.5,22.5 39.5,22.5C 39.5,17.1667 39.5,11.8333 39.5,6.5C 40.5,6.5 41.5,6.5 42.5,6.5C 42.5,11.8333 42.5,17.1667 42.5,22.5 Z"/></g>
<g><path style="opacity:0.227" fill="#3b9c01" d="M 31.5,3.5 C 32.1429,5.07641 33.1429,6.40974 34.5,7.5C 35.1667,7.5 35.5,7.83333 35.5,8.5C 36.2849,13.7516 36.7849,19.0849 37,24.5C 38.045,25.3734 38.8783,26.3734 39.5,27.5C 38.8333,27.5 38.5,27.8333 38.5,28.5C 35.2603,26.887 33.7603,24.2204 34,20.5C 28.448,15.8042 23.948,10.4708 20.5,4.5C 21.552,4.35055 22.552,4.51722 23.5,5C 24.8189,7.28517 26.3189,9.45183 28,11.5C 28.2492,10.376 28.7492,9.37598 29.5,8.5C 30.451,9.32557 31.451,9.49224 32.5,9C 31.635,7.64116 30.635,6.47449 29.5,5.5C 30.8333,5.5 31.5,4.83333 31.5,3.5 Z M 33.5,10.5 C 34.6291,12.6282 34.7958,14.9615 34,17.5C 32.955,16.6266 32.1217,15.6266 31.5,14.5C 33.1765,13.8166 33.8432,12.4832 33.5,10.5 Z"/></g>
<g><path style="opacity:0.841" fill="#3c9e02" d="M 62.5,22.5 C 61.8333,22.5 61.5,22.1667 61.5,21.5C 62.9599,19.5372 64.6266,17.7038 66.5,16C 65.9034,14.3718 66.2367,12.7051 67.5,11C 67.8333,10.8333 68.1667,10.6667 68.5,10.5C 69.4519,12.0453 69.7852,13.712 69.5,15.5C 75.7969,15.5468 76.1302,16.8801 70.5,19.5C 69.4461,19.3201 68.4461,18.9867 67.5,18.5C 65.8144,19.8569 64.1477,21.1902 62.5,22.5 Z"/></g>
<g><path style="opacity:0.416" fill="#286500" d="M 20.5,12.5 C 21.1667,13.8333 21.8333,15.1667 22.5,16.5C 20.871,18.1959 21.2043,19.1959 23.5,19.5C 22.8333,20.1667 22.1667,20.8333 21.5,21.5C 20.5233,18.7131 20.19,15.7131 20.5,12.5 Z"/></g>
<g><path style="opacity:0.831" fill="#48be00" d="M 23.5,19.5 C 21.2043,19.1959 20.871,18.1959 22.5,16.5C 23.6533,14.0698 24.6533,14.0698 25.5,16.5C 25.5466,18.0377 24.8799,19.0377 23.5,19.5 Z"/></g>
<g><path style="opacity:0.137" fill="#216300" d="M 51.5,14.5 C 51.3284,15.4916 51.6618,16.1583 52.5,16.5C 51.375,17.6522 51.375,18.6522 52.5,19.5C 51.779,21.3818 50.779,21.7152 49.5,20.5C 50.1667,18.5 50.8333,16.5 51.5,14.5 Z"/></g>
<g><path style="opacity:0.889" fill="#4ac400" d="M 53.5,15.5 C 54.8333,15.5 55.5,16.1667 55.5,17.5C 55.5,17.8333 55.5,18.1667 55.5,18.5C 54.8333,18.5 54.5,18.8333 54.5,19.5C 53.8333,19.5 53.1667,19.5 52.5,19.5C 51.375,18.6522 51.375,17.6522 52.5,16.5C 52.5,15.8333 52.8333,15.5 53.5,15.5 Z"/></g>
<g><path style="opacity:0.459" fill="#225604" d="M 57.5,11.5 C 57.5,12.8333 57.5,14.1667 57.5,15.5C 56.6618,15.8417 56.3284,16.5084 56.5,17.5C 56.1667,17.5 55.8333,17.5 55.5,17.5C 55.5,16.1667 54.8333,15.5 53.5,15.5C 54.209,14.596 55.209,14.2627 56.5,14.5C 56.2627,13.209 56.596,12.209 57.5,11.5 Z"/></g>
<g><path style="opacity:0.884" fill="#40a700" d="M 31.5,22.5 C 30.391,22.4431 29.391,22.1098 28.5,21.5C 26.8958,20.713 26.2291,19.3797 26.5,17.5C 29.8333,17.5 31.5,19.1667 31.5,22.5 Z"/></g>
<g><path style="opacity:0.369" fill="#276500" d="M 28.5,21.5 C 29.391,22.1098 30.391,22.4431 31.5,22.5C 32.1667,22.5 32.5,22.8333 32.5,23.5C 28.9581,23.8128 25.6248,23.4794 22.5,22.5C 24.7354,22.7947 26.7354,22.4614 28.5,21.5 Z"/></g>
<g><path style="opacity:0.946" fill="#358c04" d="M 61.5,12.5 C 62.1667,12.5 62.8333,12.5 63.5,12.5C 62.8711,15.6401 61.2044,18.1401 58.5,20C 59.5266,20.5133 60.5266,21.0133 61.5,21.5C 61.5,22.1667 61.8333,22.5 62.5,22.5C 61.791,23.404 60.791,23.7373 59.5,23.5C 59.1788,21.9519 58.1788,21.2852 56.5,21.5C 55.8333,21.5 55.5,21.8333 55.5,22.5C 54.5386,24.2646 54.2053,26.2646 54.5,28.5C 53.8333,28.5 53.5,28.8333 53.5,29.5C 52.1851,30.4756 50.8518,31.4756 49.5,32.5C 49.1667,32.1667 48.8333,31.8333 48.5,31.5C 48.8723,28.6169 48.8723,25.6169 48.5,22.5C 49.5,22.5 50.5,22.5 51.5,22.5C 51.3398,24.1992 51.5065,25.8659 52,27.5C 52.0971,24.5177 52.9304,21.8511 54.5,19.5C 55.1667,19.5 55.5,19.1667 55.5,18.5C 56.1667,18.5 56.5,18.1667 56.5,17.5C 57.5,17.1667 58.1667,16.5 58.5,15.5C 58.8333,14.5 59.5,13.8333 60.5,13.5C 61.1667,13.5 61.5,13.1667 61.5,12.5 Z"/></g>
<g><path style="opacity:0.247" fill="#3a9a00" d="M 12.5,23.5 C 12.5,24.1667 12.8333,24.5 13.5,24.5C 14.1667,24.5 14.5,24.8333 14.5,25.5C 14.6107,26.1174 14.944,26.6174 15.5,27C 20.8642,27.1705 26.1975,27.6705 31.5,28.5C 25.8625,29.6632 20.1959,29.8299 14.5,29C 13.6667,28.1667 12.8333,27.3333 12,26.5C 10.4912,28.9193 8.32454,29.9193 5.5,29.5C 5.43258,26.234 7.09924,24.734 10.5,25C 8.66081,23.8684 6.66081,23.0351 4.5,22.5C 1.56577,19.4499 2.23243,18.2832 6.5,19C 7.21063,20.2547 8.04396,21.4214 9,22.5C 9.33333,22.1667 9.66667,21.8333 10,21.5C 10.7083,22.3805 11.5416,23.0472 12.5,23.5 Z"/></g>
<g><path style="opacity:0.937" fill="#3da000" d="M 56.5,21.5 C 58.1788,21.2852 59.1788,21.9519 59.5,23.5C 59.3893,24.1174 59.056,24.6174 58.5,25C 60.4727,25.4955 62.4727,25.6621 64.5,25.5C 64.5,26.5 64.5,27.5 64.5,28.5C 62.8333,27.1667 61.1667,27.1667 59.5,28.5C 59.1667,27.1667 58.8333,27.1667 58.5,28.5C 57.2058,29.2899 56.0391,30.2899 55,31.5C 54.2828,30.9558 53.7828,30.2891 53.5,29.5C 54.1667,29.5 54.5,29.1667 54.5,28.5C 55.6266,27.8783 56.6266,27.045 57.5,26C 56.0267,25.2904 55.3601,24.1238 55.5,22.5C 56.1667,22.5 56.5,22.1667 56.5,21.5 Z"/></g>
<g><path style="opacity:0.949" fill="#368e02" d="M 71.5,28.5 C 71.1583,27.6618 70.4916,27.3284 69.5,27.5C 66.932,25.3312 66.932,22.9979 69.5,20.5C 70.8064,21.9122 71.6397,23.5789 72,25.5C 72.9172,21.6992 75.0839,20.3659 78.5,21.5C 76.843,24.498 74.5097,26.8313 71.5,28.5 Z"/></g>
<g><path style="opacity:0.891" fill="#3d9d05" d="M 79.5,26.5 C 79.5,27.8333 79.5,29.1667 79.5,30.5C 78.2921,31.2341 76.9587,31.5674 75.5,31.5C 74.7564,28.0504 76.0897,26.3838 79.5,26.5 Z"/></g>
<g><path style="opacity:0.031" fill="#1d3d02" d="M 34.5,28.5 C 33.6618,28.8417 33.3284,29.5084 33.5,30.5C 32.2241,29.6136 32.2241,28.6136 33.5,27.5C 34.1067,27.6236 34.44,27.9569 34.5,28.5 Z"/></g>
<g><path style="opacity:0.793" fill="#44b301" d="M 45.5,7.5 C 46.4916,14.6476 46.825,21.9809 46.5,29.5C 44.8333,31.5 43.1667,33.5 41.5,35.5C 40.3454,42.3209 40.1787,49.3209 41,56.5C 41.3826,57.056 41.8826,57.3893 42.5,57.5C 42.5,58.1667 42.8333,58.5 43.5,58.5C 43.5,58.8333 43.5,59.1667 43.5,59.5C 43.5,62.5 43.5,65.5 43.5,68.5C 44.8333,68.5 46.1667,68.5 47.5,68.5C 49.6298,70.1271 51.6298,71.9604 53.5,74C 55.898,74.3744 58.2313,74.3744 60.5,74C 61.3366,75.0113 61.67,76.1779 61.5,77.5C 58.4781,77.196 55.4781,76.696 52.5,76C 50.0114,72.3119 46.6781,70.1452 42.5,69.5C 42.6646,66.4816 42.498,63.4816 42,60.5C 41.5831,59.244 40.7498,58.5774 39.5,58.5C 39.7838,48.4478 39.4504,38.4478 38.5,28.5C 38.5,27.8333 38.8333,27.5 39.5,27.5C 40.1174,27.6107 40.6174,27.944 41,28.5C 41.3153,26.4144 41.8153,24.4144 42.5,22.5C 44.13,24.0261 44.9633,26.0261 45,28.5C 45.4996,21.5079 45.6663,14.5079 45.5,7.5 Z M 41.5,29.5 C 44.0009,29.5109 44.1676,30.1776 42,31.5C 41.5357,30.9056 41.369,30.2389 41.5,29.5 Z"/></g>
<g><path style="opacity:0.855" fill="#3ea101" d="M 64.5,28.5 C 65.677,31.3164 67.3437,30.9831 69.5,27.5C 70.4916,27.3284 71.1583,27.6618 71.5,28.5C 70.3747,30.1288 69.0414,31.6288 67.5,33C 60.8333,34.3333 54.1667,35.6667 47.5,37C 47.1667,37.3333 46.8333,37.6667 46.5,38C 49.8168,38.4983 53.1501,38.665 56.5,38.5C 52.5,39.1667 48.5,39.8333 44.5,40.5C 43.6862,42.631 43.1862,44.9644 43,47.5C 42.502,44.5184 42.3354,41.5184 42.5,38.5C 43.2899,37.2058 44.2899,36.0391 45.5,35C 48.5,34.6667 51.5,34.3333 54.5,34C 56.7458,32.7432 58.0791,30.9099 58.5,28.5C 58.8333,28.5 59.1667,28.5 59.5,28.5C 61.1667,27.1667 62.8333,27.1667 64.5,28.5 Z"/></g>
<g><path style="opacity:0.953" fill="#41ab00" d="M 34.5,28.5 C 36.5638,28.7619 37.8971,29.9286 38.5,32C 36.2807,33.9073 34.614,33.4073 33.5,30.5C 33.3284,29.5084 33.6618,28.8417 34.5,28.5 Z"/></g>
<g><path style="opacity:0.805" fill="#379003" d="M -0.5,27.5 C 1.70281,27.6036 3.70281,28.2702 5.5,29.5C 7.72776,30.3771 9.72776,31.7104 11.5,33.5C 13.1853,36.8555 15.1853,37.1888 17.5,34.5C 18.1667,34.5 18.5,34.1667 18.5,33.5C 27.0082,29.306 33.6749,31.306 38.5,39.5C 37.6753,43.6472 37.1753,47.9805 37,52.5C 36.6174,53.056 36.1174,53.3893 35.5,53.5C 35.5,51.1667 35.5,48.8333 35.5,46.5C 36.6291,44.3718 36.7958,42.0385 36,39.5C 34.1667,37.6667 32.3333,35.8333 30.5,34C 26.7115,32.8837 23.3782,33.5504 20.5,36C 27.0326,34.9538 32.0326,37.1205 35.5,42.5C 35.1667,42.8333 34.8333,43.1667 34.5,43.5C 33.4822,42.8075 32.4822,42.1408 31.5,41.5C 31.5,40.8333 31.1667,40.5 30.5,40.5C 30.5,39.8333 30.1667,39.5 29.5,39.5C 29.5,38.8333 29.1667,38.5 28.5,38.5C 23.0247,37.5111 17.358,37.1778 11.5,37.5C 10.8333,36.1667 9.83333,35.1667 8.5,34.5C 5.5,33.1667 2.5,31.8333 -0.5,30.5C -0.5,29.5 -0.5,28.5 -0.5,27.5 Z M 11.5,33.5 C 13.4352,34.1495 15.4352,34.4828 17.5,34.5C 15.1853,37.1888 13.1853,36.8555 11.5,33.5 Z"/></g>
<g><path style="opacity:0.906" fill="#389802" d="M 18.5,33.5 C 17.8333,33.5 17.5,33.8333 17.5,34.5C 15.4352,34.4828 13.4352,34.1495 11.5,33.5C 12.7058,30.8609 14.7058,30.0276 17.5,31C 18.2524,31.6708 18.5858,32.5041 18.5,33.5 Z"/></g>
<g><path style="opacity:0.902" fill="#3da002" d="M 75.5,31.5 C 75.2627,32.791 75.596,33.791 76.5,34.5C 76.2178,35.7777 75.5511,36.7777 74.5,37.5C 72.6096,37.7035 71.1096,37.0368 70,35.5C 66.9433,36.4505 63.7766,36.7839 60.5,36.5C 63.1667,35.8333 65.8333,35.1667 68.5,34.5C 70.0361,31.9078 72.3695,30.9078 75.5,31.5 Z"/></g>
<g><path style="opacity:0.379" fill="#266200" d="M 68.5,34.5 C 65.8333,35.1667 63.1667,35.8333 60.5,36.5C 59.9569,36.44 59.6236,36.1067 59.5,35.5C 62.4281,34.5159 65.4281,34.1826 68.5,34.5 Z"/></g>
<g><path style="opacity:0.372" fill="#1c4705" d="M 8.5,34.5 C 9.83333,35.1667 10.8333,36.1667 11.5,37.5C 10.8333,37.8333 10.1667,38.1667 9.5,38.5C 9.17876,36.9519 8.17876,36.2852 6.5,36.5C 7.16667,35.8333 7.83333,35.1667 8.5,34.5 Z"/></g>
<g><path style="opacity:0.279" fill="#266600" d="M 41.5,35.5 C 41.2627,36.791 41.596,37.791 42.5,38.5C 42.3354,41.5184 42.502,44.5184 43,47.5C 43.1862,44.9644 43.6862,42.631 44.5,40.5C 44.2053,42.7354 44.5386,44.7354 45.5,46.5C 45.5,47.1667 45.8333,47.5 46.5,47.5C 46.5,48.1667 46.5,48.8333 46.5,49.5C 46.1667,49.5 45.8333,49.5 45.5,49.5C 45.1667,49.5 44.8333,49.5 44.5,49.5C 44.1583,48.6618 43.4916,48.3284 42.5,48.5C 41.1667,48.8333 41.1667,49.1667 42.5,49.5C 42.5,52.1667 42.5,54.8333 42.5,57.5C 41.8826,57.3893 41.3826,57.056 41,56.5C 40.1787,49.3209 40.3454,42.3209 41.5,35.5 Z"/></g>
<g><path style="opacity:0.857" fill="#3ca302" d="M -0.5,36.5 C 1.97259,36.0882 3.30592,37.0882 3.5,39.5C 3.5,40.1667 3.5,40.8333 3.5,41.5C 2.04125,41.5674 0.707917,41.2341 -0.5,40.5C -0.5,39.1667 -0.5,37.8333 -0.5,36.5 Z"/></g>
<g><path style="opacity:0.929" fill="#45b300" d="M 6.5,36.5 C 8.17876,36.2852 9.17876,36.9519 9.5,38.5C 8.08134,39.4511 6.41467,39.7845 4.5,39.5C 4.42702,37.9731 5.09368,36.9731 6.5,36.5 Z"/></g>
<g><path style="opacity:0.247" fill="#225c01" d="M 11.5,37.5 C 17.358,37.1778 23.0247,37.5111 28.5,38.5C 29.1667,38.5 29.5,38.8333 29.5,39.5C 29.5,39.8333 29.5,40.1667 29.5,40.5C 29.1667,40.5 28.8333,40.5 28.5,40.5C 28.1667,40.5 27.8333,40.5 27.5,40.5C 26.3931,38.1534 24.7264,37.82 22.5,39.5C 22.5,40.1667 22.1667,40.5 21.5,40.5C 21.1667,40.5 20.8333,40.5 20.5,40.5C 19.3931,38.1534 17.7264,37.82 15.5,39.5C 14.1667,38.8333 12.8333,38.1667 11.5,37.5 Z"/></g>
<g><path style="opacity:0.251" fill="#245b01" d="M 76.5,34.5 C 77.1667,34.8333 77.8333,35.1667 78.5,35.5C 77.6314,37.717 77.298,40.0504 77.5,42.5C 76.8333,41.8333 76.1667,41.1667 75.5,40.5C 70.6946,39.5128 65.6946,39.1795 60.5,39.5C 66.3928,38.9399 71.0594,38.2732 74.5,37.5C 75.5511,36.7777 76.2178,35.7777 76.5,34.5 Z"/></g>
<g><path style="opacity:0.82" fill="#40a602" d="M 38.5,39.5 C 38.5,44.1667 38.5,48.8333 38.5,53.5C 37.5416,53.9528 36.7083,54.6195 36,55.5C 35.5017,58.8168 35.335,62.1501 35.5,65.5C 32.9407,65.1984 30.6074,65.5318 28.5,66.5C 27.3747,68.1288 26.0414,69.6288 24.5,71C 19.78,71.2213 15.1133,71.7213 10.5,72.5C 8.88882,71.6798 8.22216,70.3464 8.5,68.5C 13.1398,69.3973 17.8065,69.5639 22.5,69C 25.1082,65.0237 28.7748,63.5237 33.5,64.5C 34.2302,60.9394 34.8969,57.2728 35.5,53.5C 36.1174,53.3893 36.6174,53.056 37,52.5C 37.1753,47.9805 37.6753,43.6472 38.5,39.5 Z"/></g>
<g><path style="opacity:0.376" fill="#266000" d="M 56.5,38.5 C 57.0431,38.56 57.3764,38.8933 57.5,39.5C 53.2172,40.4922 48.8839,40.8256 44.5,40.5C 48.5,39.8333 52.5,39.1667 56.5,38.5 Z"/></g>
<g><path style="opacity:0.216" fill="#389400" d="M 78.5,35.5 C 78.8333,35.5 79.1667,35.5 79.5,35.5C 79.5,38.1667 79.5,40.8333 79.5,43.5C 78.5084,43.6716 77.8417,43.3382 77.5,42.5C 77.298,40.0504 77.6314,37.717 78.5,35.5 Z"/></g>
<g><path style="opacity:0.476" fill="#235e00" d="M 3.5,39.5 C 3.83333,39.5 4.16667,39.5 4.5,39.5C 7.5,40.1667 10.5,40.8333 13.5,41.5C 10.6146,41.1936 7.9479,41.5269 5.5,42.5C 5.16667,42.5 4.83333,42.5 4.5,42.5C 4.5,41.8333 4.16667,41.5 3.5,41.5C 3.5,40.8333 3.5,40.1667 3.5,39.5 Z"/></g>
<g><path style="opacity:0.864" fill="#41ac00" d="M 61.5,41.5 C 64.8333,41.5 66.5,43.1667 66.5,46.5C 63.1667,46.5 61.5,44.8333 61.5,41.5 Z"/></g>
<g><path style="opacity:0.907" fill="#3fa600" d="M 70.5,41.5 C 73.8333,41.5 75.5,43.1667 75.5,46.5C 72.1667,46.5 70.5,44.8333 70.5,41.5 Z"/></g>
<g><path style="opacity:0.927" fill="#3d9f01" d="M 4.5,42.5 C 3.83333,45.1667 2.16667,46.8333 -0.5,47.5C -0.5,46.1667 -0.5,44.8333 -0.5,43.5C 1.04181,42.6993 2.70848,42.366 4.5,42.5 Z"/></g>
<g><path style="opacity:0.769" fill="#3da001" d="M 20.5,40.5 C 19.0484,41.3019 17.3817,41.8019 15.5,42C 18.1667,42.6667 20.8333,42.6667 23.5,42C 22.5842,41.7216 21.9175,41.2216 21.5,40.5C 22.1667,40.5 22.5,40.1667 22.5,39.5C 24.7264,37.82 26.3931,38.1534 27.5,40.5C 27.5,41.1667 27.8333,41.5 28.5,41.5C 28.3713,43.2161 28.038,44.8828 27.5,46.5C 26.027,47.7401 24.3604,48.7401 22.5,49.5C 20.6097,49.1312 19.7764,48.1312 20,46.5C 22.0693,45.7362 24.236,45.2362 26.5,45C 21.7846,44.7188 17.1179,44.2188 12.5,43.5C 10.3926,42.5318 8.0593,42.1984 5.5,42.5C 7.9479,41.5269 10.6146,41.1936 13.5,41.5C 14.1667,40.8333 14.8333,40.1667 15.5,39.5C 17.7264,37.82 19.3931,38.1534 20.5,40.5 Z M 20.5,40.5 C 20.8333,40.5 21.1667,40.5 21.5,40.5C 21.9175,41.2216 22.5842,41.7216 23.5,42C 20.8333,42.6667 18.1667,42.6667 15.5,42C 17.3817,41.8019 19.0484,41.3019 20.5,40.5 Z"/></g>
<g><path style="opacity:0.873" fill="#399802" d="M 12.5,43.5 C 11.9865,47.3761 9.9865,48.7094 6.5,47.5C 7.16682,44.1667 9.16682,42.8333 12.5,43.5 Z"/></g>
<g><path style="opacity:0.663" fill="#42ac00" d="M 60.5,39.5 C 65.6946,39.1795 70.6946,39.5128 75.5,40.5C 70.6367,40.1805 65.97,40.5139 61.5,41.5C 60.3734,42.1217 59.3734,42.955 58.5,44C 60.6349,44.7589 61.9682,46.2589 62.5,48.5C 58.5657,50.2424 56.899,48.909 57.5,44.5C 54.6146,44.1936 51.9479,44.5269 49.5,45.5C 48.5,46.1667 47.5,46.8333 46.5,47.5C 45.8333,47.5 45.5,47.1667 45.5,46.5C 46.2899,45.2058 47.2899,44.0391 48.5,43C 53.0515,43.239 57.0515,42.0723 60.5,39.5 Z"/></g>
<g><path style="opacity:0.878" fill="#3b9d02" d="M 49.5,45.5 C 53.5,44.8333 55.1667,46.5 54.5,50.5C 51.2984,50.4633 49.6317,48.7967 49.5,45.5 Z"/></g>
<g><path style="opacity:0.868" fill="#43b000" d="M 28.5,40.5 C 28.8333,40.5 29.1667,40.5 29.5,40.5C 29.8333,40.5 30.1667,40.5 30.5,40.5C 31.1667,40.5 31.5,40.8333 31.5,41.5C 31.5,43.1667 31.5,44.8333 31.5,46.5C 32.8333,46.5 34.1667,46.5 35.5,46.5C 35.5,48.8333 35.5,51.1667 35.5,53.5C 34.8333,51.8333 34.1667,50.1667 33.5,48.5C 30.9899,48.9465 28.9899,48.2798 27.5,46.5C 28.038,44.8828 28.3713,43.2161 28.5,41.5C 28.5,41.1667 28.5,40.8333 28.5,40.5 Z"/></g>
<g><path style="opacity:0.987" fill="#4ac300" d="M 42.5,48.5 C 43.4916,48.3284 44.1583,48.6618 44.5,49.5C 43.9216,52.2804 43.2549,54.9471 42.5,57.5C 42.5,54.8333 42.5,52.1667 42.5,49.5C 42.5,49.1667 42.5,48.8333 42.5,48.5 Z"/></g>
<g><path style="opacity:0.745" fill="#41aa01" d="M 45.5,49.5 C 45.8333,49.5 46.1667,49.5 46.5,49.5C 46.5,54.5 46.5,59.5 46.5,64.5C 49.6646,63.9635 52.3312,64.7969 54.5,67C 57.0356,67.1862 59.369,67.6862 61.5,68.5C 58.9407,68.1984 56.6074,68.5318 54.5,69.5C 53.1667,68.8333 52.1667,67.8333 51.5,66.5C 49.7354,65.5386 47.7354,65.2053 45.5,65.5C 45.5,60.1667 45.5,54.8333 45.5,49.5 Z"/></g>
<g><path style="opacity:0.362" fill="#256400" d="M 44.5,49.5 C 44.8333,49.5 45.1667,49.5 45.5,49.5C 45.5,54.8333 45.5,60.1667 45.5,65.5C 47.7354,65.2053 49.7354,65.5386 51.5,66.5C 49.1432,66.3367 46.8098,66.5034 44.5,67C 45.7375,67.2321 46.7375,67.7321 47.5,68.5C 46.1667,68.5 44.8333,68.5 43.5,68.5C 43.5,65.5 43.5,62.5 43.5,59.5C 44.8333,59.1667 44.8333,58.8333 43.5,58.5C 42.8333,58.5 42.5,58.1667 42.5,57.5C 43.2549,54.9471 43.9216,52.2804 44.5,49.5 Z"/></g>
<g><path style="opacity:0.332" fill="#276400" d="M 38.5,53.5 C 38.5,54.1667 38.5,54.8333 38.5,55.5C 37.8333,59.5 37.1667,63.5 36.5,67.5C 34.0521,66.5269 31.3854,66.1936 28.5,66.5C 30.6074,65.5318 32.9407,65.1984 35.5,65.5C 35.335,62.1501 35.5017,58.8168 36,55.5C 36.7083,54.6195 37.5416,53.9528 38.5,53.5 Z"/></g>
<g><path style="opacity:0.098" fill="#275e01" d="M 33.5,48.5 C 34.1667,50.1667 34.8333,51.8333 35.5,53.5C 34.8969,57.2728 34.2302,60.9394 33.5,64.5C 33.5,59.1667 33.5,53.8333 33.5,48.5 Z"/></g>
<g><path style="opacity:0.272" fill="#286300" d="M 39.5,59.5 C 39.5,59.1667 39.5,58.8333 39.5,58.5C 40.7498,58.5774 41.5831,59.244 42,60.5C 42.498,63.4816 42.6646,66.4816 42.5,69.5C 41.8333,71.5 41.1667,73.5 40.5,75.5C 40.8214,69.9738 40.4881,64.6405 39.5,59.5 Z"/></g>
<g><path style="opacity:0.983" fill="#3ea201" d="M 61.5,68.5 C 62.6266,69.1217 63.6266,69.955 64.5,71C 66.5568,71.3052 68.5568,71.3052 70.5,71C 71.3366,72.0113 71.67,73.1779 71.5,74.5C 65.5903,73.1622 59.9236,71.4955 54.5,69.5C 56.6074,68.5318 58.9407,68.1984 61.5,68.5 Z"/></g>
<g><path style="opacity:0.802" fill="#389305" d="M 38.5,55.5 C 38.6658,60.1785 38.4992,64.8452 38,69.5C 32.7304,72.2812 27.897,75.6146 23.5,79.5C 23.238,78.0222 23.5713,76.6888 24.5,75.5C 28.2667,72.3849 32.2667,69.7182 36.5,67.5C 37.1667,63.5 37.8333,59.5 38.5,55.5 Z"/></g>
<g><path style="opacity:0.795" fill="#3ea401" d="M 39.5,59.5 C 40.4881,64.6405 40.8214,69.9738 40.5,75.5C 37.4258,77.302 34.0924,78.302 30.5,78.5C 30.3241,74.8421 31.8241,73.8421 35,75.5C 36.4728,75.0969 37.8061,74.4303 39,73.5C 39.4992,68.8452 39.6658,64.1785 39.5,59.5 Z"/></g>
<g><path style="opacity:0.953" fill="#41aa00" d="M 18.5,76.5 C 20.0281,76.5173 20.5281,77.184 20,78.5C 18.1217,80.0429 16.6217,81.8762 15.5,84C 14.552,84.4828 13.552,84.6495 12.5,84.5C 12.3505,83.448 12.5172,82.448 13,81.5C 15.3284,80.3365 17.1618,78.6698 18.5,76.5 Z"/></g>
<g><path style="opacity:0.765" fill="#3a9901" d="M 37.5,79.5 C 38.5,79.5 39.5,79.5 40.5,79.5C 39.8857,83.1352 39.5524,86.8019 39.5,90.5C 34.2374,90.1312 29.9041,91.9645 26.5,96C 25.552,96.4828 24.552,96.6495 23.5,96.5C 23.5,95.1667 23.5,93.8333 23.5,92.5C 28.0033,90.5809 32.67,89.2475 37.5,88.5C 37.1179,85.3537 37.1179,82.3537 37.5,79.5 Z"/></g>
<g><path style="opacity:0.827" fill="#379001" d="M 42.5,71.5 C 44.22,73.6581 45.0533,76.3248 45,79.5C 48.6241,81.2586 50.2908,84.2586 50,88.5C 52.2354,90.2024 54.7354,91.2024 57.5,91.5C 57.7778,93.3464 57.1112,94.6798 55.5,95.5C 53.0827,92.9168 50.2493,90.9168 47,89.5C 46.8142,87.0995 46.3142,84.7662 45.5,82.5C 44.8333,82.1667 44.1667,81.8333 43.5,81.5C 42.513,78.2317 42.1796,74.8984 42.5,71.5 Z"/></g>
<g><path style="opacity:0.775" fill="#3b9b01" d="M 55.5,78.5 C 57.1958,78.6854 58.5291,79.5187 59.5,81C 61.7135,81.6256 63.8801,81.4589 66,80.5C 69.3333,81.8333 69.3333,83.1667 66,84.5C 63.536,83.8392 61.036,83.3392 58.5,83C 56.8588,81.871 55.8588,80.371 55.5,78.5 Z"/></g>
<g><path style="opacity:0.596" fill="#338b03" d="M 28.5,80.5 C 29.675,80.281 30.675,80.6143 31.5,81.5C 29.214,86.1353 25.5474,88.1353 20.5,87.5C 20.5,88.5 20.5,89.5 20.5,90.5C 19.1667,90.5 17.8333,90.5 16.5,90.5C 16.33,89.1779 16.6634,88.0113 17.5,87C 22.343,86.6858 26.0097,84.5191 28.5,80.5 Z"/></g>
<g><path style="opacity:0.81" fill="#389203" d="M 54.5,84.5 C 56.9976,85.9123 59.6642,87.0789 62.5,88C 63.8213,89.5445 63.4879,90.7112 61.5,91.5C 59.7721,89.7745 57.7721,88.4411 55.5,87.5C 54.6143,86.675 54.281,85.675 54.5,84.5 Z"/></g>
<g><path style="opacity:0.789" fill="#42a901" d="M 38.5,98.5 C 37.1667,98.5 35.8333,98.5 34.5,98.5C 35.8333,90.5 37.1667,90.5 38.5,98.5 Z"/></g>
<g><path style="opacity:0.834" fill="#3d9c02" d="M 49.5,98.5 C 48.1667,98.5 46.8333,98.5 45.5,98.5C 43.5981,96.8814 42.2647,94.8814 41.5,92.5C 41.8333,91.5 42.1667,90.5 42.5,89.5C 43.0252,93.6964 45.3586,95.6964 49.5,95.5C 49.5,96.5 49.5,97.5 49.5,98.5 Z"/></g>
</svg>
